<?xml version="1.0" ?><svg height="296px" version="1.1" viewBox="0 0 295 296" width="295px" xmlns="http://www.w3.org/2000/svg" xmlns:xlink="http://www.w3.org/1999/xlink"><title/><desc/><defs/><g fill="none" fill-rule="evenodd" id="Page-1" stroke="none" stroke-width="1"><g fill-rule="nonzero" id="download" transform="translate(0.000000, 0.800000)"><path d="M288.843,265.421 C285.53,265.421 282.843,268.108 282.843,271.421 L282.843,282.842 L12,282.842 L12,242.85 L288.842,242.85 C292.155,242.85 294.842,240.163 294.842,236.85 C294.842,233.537 292.155,230.85 288.842,230.85 L6,230.85 C2.687,230.85 0,233.537 0,236.85 L0,288.842 C0,292.155 2.687,294.842 6,294.842 L288.842,294.842 C292.155,294.842 294.842,292.155 294.842,288.842 L294.842,271.421 C294.843,268.108 292.156,265.421 288.843,265.421 Z" fill="#000000" id="Shape"/><path d="M143.179,203.465 C144.304,204.59 145.83,205.222 147.422,205.222 C149.013,205.222 150.539,204.59 151.664,203.465 L228.031,127.097 C230.375,124.754 230.375,120.955 228.031,118.612 C225.689,116.269 221.888,116.269 219.547,118.612 L147.422,190.737 L75.297,118.612 C72.954,116.269 69.154,116.269 66.812,118.612 C64.469,120.955 64.469,124.754 66.812,127.097 L143.179,203.465 Z" fill="#FB4A5E" id="Shape"/><path d="M147.422,171.421 C150.735,171.421 153.422,168.734 153.422,165.421 L153.422,6 C153.422,2.687 150.735,0 147.422,0 C144.109,0 141.422,2.687 141.422,6 L141.422,165.421 C141.422,168.735 144.108,171.421 147.422,171.421 Z" fill="#FB4A5E" id="Shape"/></g></g></svg>